<?xml version="1.0" standalone="no"?>
<!DOCTYPE svg PUBLIC "-//W3C//DTD SVG 20010904//EN"
 "http://www.w3.org/TR/2001/REC-SVG-20010904/DTD/svg10.dtd">
<svg version="1.0" xmlns="http://www.w3.org/2000/svg"
 width="700.000000pt" height="700.000000pt" viewBox="0 0 700.000000 700.000000"
 preserveAspectRatio="xMidYMid meet">
<metadata>
Created by potrace 1.14, written by Peter Selinger 2001-2017
</metadata>
<g transform="translate(0.000000,700.000000) scale(0.100000,-0.100000)"
fill="#000000" stroke="none">
<path d="M2210 6703 c-194 -28 -346 -80 -477 -166 -194 -126 -337 -334 -387
-562 -9 -38 -19 -83 -22 -100 -4 -16 -8 -366 -10 -778 -3 -863 7 -783 -111
-902 -86 -85 -215 -172 -372 -248 -137 -66 -187 -108 -222 -184 -62 -134 4
-315 136 -377 282 -132 468 -265 540 -389 l28 -48 0 -867 c0 -917 2 -966 48
-1117 25 -83 87 -211 137 -280 51 -71 153 -168 235 -222 69 -46 226 -117 280
-127 15 -2 36 -7 46 -11 51 -16 194 -32 266 -31 120 3 197 45 259 141 85 133
28 332 -118 407 -45 23 -50 24 -147 33 -232 21 -346 96 -400 264 -21 65 -21
81 -24 971 -1 498 -5 916 -8 929 -32 126 -81 237 -145 326 -47 65 -161 183
-229 237 l-54 43 38 30 c21 16 77 68 124 115 131 130 208 255 251 406 22 78
22 87 23 829 1 584 4 762 14 805 45 187 176 280 415 295 134 9 224 65 272 170
54 117 28 243 -69 338 -50 49 -111 70 -207 72 -47 1 -96 0 -110 -2z"/>
<path d="M4596 6699 c-171 -41 -267 -240 -194 -400 49 -106 137 -163 268 -173
101 -8 124 -13 200 -39 119 -41 207 -153 226 -290 4 -23 7 -375 9 -782 2 -717
3 -742 23 -818 49 -182 189 -377 375 -522 l38 -30 -48 -37 c-39 -29 -121 -109
-189 -182 -29 -31 -107 -153 -129 -203 -14 -30 -35 -89 -47 -131 -22 -76 -22
-86 -23 -952 -1 -481 -5 -901 -9 -933 -24 -201 -167 -316 -416 -332 -141 -10
-226 -63 -278 -174 -70 -152 11 -337 172 -393 92 -31 302 -11 461 44 340 117
572 382 631 723 4 22 9 49 12 60 3 11 7 424 8 918 l3 899 27 46 c64 109 224
231 465 353 121 61 145 78 174 117 62 86 76 201 36 294 -33 76 -85 120 -221
186 -229 110 -408 250 -461 359 -20 41 -20 59 -21 767 0 398 -5 749 -10 778
-38 223 -85 340 -196 487 -140 184 -370 314 -632 355 -71 12 -216 14 -254 5z"/>
</g>
</svg>
